<svg height="401.34999999999997" width="390.99999999999994" style="width: 391px;height: 401.35px;position: absolute;top: 50%;left: 50%;transform: translate(-50%, -50%) scale(1);z-index: 0;cursor: pointer;overflow: visible;color: #43c343;"><defs id="SvgjsDefs1001"><linearGradient id="SvgjsLinearGradient1013"><stop id="SvgjsStop1014" stop-color="#fbb040" offset="0"></stop><stop id="SvgjsStop1015" stop-color="#f9ed32" offset="1"></stop></linearGradient><linearGradient id="SvgjsLinearGradient1016"><stop id="SvgjsStop1017" stop-color="#fbb040" offset="0"></stop><stop id="SvgjsStop1018" stop-color="#f9ed32" offset="1"></stop></linearGradient><linearGradient id="SvgjsLinearGradient1019"><stop id="SvgjsStop1020" stop-color="#fbb040" offset="0"></stop><stop id="SvgjsStop1021" stop-color="#f9ed32" offset="1"></stop></linearGradient></defs><g id="SvgjsG1007" featurekey="rootContainer" transform="matrix(1.15,0,0,1.15,-5.75,0)" fill="url(#SvgjsLinearGradient1013)"><path xmlns="http://www.w3.org/2000/svg" fill-rule="evenodd" d="M5,65 L175,0 L345, 65 L175, 10 z M5,269 L175,349 L345,264 L175, 339 z"></path></g><g id="SvgjsG1008" featurekey="symbolFeature-0" transform="matrix(1.5765934543390026,0,0,1.5765934543390026,117.16957851182083,77.5301316625926)" fill="url(#SvgjsLinearGradient1016)"><path xmlns="http://www.w3.org/2000/svg" d="M81.695,44.772c-1.282-0.517-2.608-0.886-3.962-1.129V19.54c0-1.866-1.519-3.385-3.386-3.385H14.805  c-1.867,0-3.386,1.519-3.386,3.385v42.777c0,0.495,0.113,0.962,0.305,1.387H6.601c-0.295,0-0.576,0.131-0.766,0.357  s-0.27,0.525-0.219,0.816l1.193,6.771c0.084,0.478,0.5,0.826,0.985,0.826h48.159c3.303,6.721,10.2,11.369,18.181,11.369  c11.175,0,20.266-9.09,20.266-20.264C94.399,55.259,89.412,47.876,81.695,44.772z M13.419,19.54c0-0.764,0.622-1.385,1.386-1.385  h59.543c0.764,0,1.386,0.621,1.386,1.385v23.851c-0.53-0.041-1.063-0.075-1.6-0.075c-10.211,0-18.856,7.63-20.109,17.748  c-0.104,0.827-0.155,1.674-0.155,2.518c0,0.042,0.006,0.081,0.006,0.123h-39.07c-0.764,0-1.386-0.622-1.386-1.387V19.54z   M8.633,70.476l-0.841-4.771h46.19c0.174,1.661,0.568,3.254,1.12,4.771H8.633z M74.134,81.845c-10.071,0-18.265-8.193-18.265-18.264  c0-0.761,0.047-1.525,0.14-2.271c1.13-9.118,8.922-15.994,18.125-15.994c2.359,0,4.652,0.441,6.814,1.313  c6.956,2.797,11.451,9.452,11.451,16.953C92.399,73.651,84.205,81.845,74.134,81.845z M16.209,27.546  c0.256,0,0.512-0.098,0.707-0.293l5.185-5.186c0.391-0.391,0.391-1.024,0-1.414c-0.391-0.391-1.023-0.391-1.414,0l-5.185,5.186  c-0.391,0.391-0.391,1.024,0,1.414C15.697,27.448,15.953,27.546,16.209,27.546z M44.575,22.849c0.821,0,1.489-0.667,1.489-1.488  c0-0.822-0.668-1.49-1.489-1.49s-1.489,0.668-1.489,1.49C43.086,22.181,43.754,22.849,44.575,22.849z M44.575,20.849  c0.282,0,0.511,0.229,0.511,0.512c0,0.281-0.229,0.51-0.511,0.51s-0.511-0.229-0.511-0.51  C44.064,21.078,44.293,20.849,44.575,20.849z M16.032,32.907c0.256,0,0.512-0.098,0.707-0.293l10.843-10.844  c0.391-0.391,0.391-1.023,0-1.414s-1.023-0.391-1.414,0L15.325,31.2c-0.391,0.391-0.391,1.023,0,1.414  C15.521,32.81,15.776,32.907,16.032,32.907z M50.826,67.089h-12.5c-0.552,0-1,0.447-1,1s0.448,1,1,1h12.5c0.553,0,1-0.447,1-1  S51.379,67.089,50.826,67.089z M76.778,54.939c-0.516-0.197-1.095,0.06-1.292,0.575l-5.429,14.145  c-0.198,0.516,0.06,1.094,0.575,1.292c0.118,0.045,0.239,0.066,0.358,0.066c0.401,0,0.781-0.244,0.934-0.642l5.429-14.145  C77.552,55.716,77.294,55.138,76.778,54.939z M68.364,55.052c-0.401-0.378-1.034-0.36-1.414,0.041l-6.765,7.164  c-0.363,0.386-0.363,0.987,0,1.373l6.765,7.168c0.197,0.208,0.462,0.313,0.728,0.313c0.246,0,0.493-0.091,0.687-0.272  c0.401-0.379,0.42-1.013,0.041-1.414l-6.117-6.481l6.117-6.478C68.784,56.064,68.766,55.432,68.364,55.052z M87.225,62.261  l-6.765-7.168c-0.38-0.401-1.013-0.419-1.414-0.041c-0.401,0.379-0.42,1.013-0.041,1.414l6.117,6.481l-6.117,6.478  c-0.379,0.401-0.36,1.034,0.041,1.414c0.193,0.182,0.44,0.272,0.687,0.272c0.266,0,0.53-0.105,0.728-0.313l6.765-7.164  C87.588,63.248,87.588,62.646,87.225,62.261z"></path></g><g id="SvgjsG1009" featurekey="nameFeature-0" transform="matrix(1.4952408362099958,0,0,1.4952408362099958,18.607614804661285,225.05711139145285)" fill="url(#SvgjsLinearGradient1019)"><path d="M9.2 31.32 l-7.6 -19.32 l5.4 0 l4.2 10.6 l4.16 -10.6 l5.4 0 l-7.6 19.32 l-3.96 0 z M1.68 40 l0 -23.24 l5.04 12.84 l0 10.4 l-5.04 0 z M15.68 40 l0 -10.4 l5.04 -12.84 l0 23.24 l-5.04 0 z M35.316 40 l0 -5.04 l1.6 0 l0.76 -0.76 l0 -16.4 l-0.76 -0.76 l-1.6 0 l0 -5.04 l3.68 0 l3.72 3.72 l0 20.56 l-3.72 3.72 l-3.68 0 z M29.916 40 l-3.72 -3.72 l0 -20.56 l3.72 -3.72 l3.68 0 l0 5.04 l-1.6 0 l-0.76 0.76 l0 16.4 l0.76 0.76 l1.6 0 l0 5.04 l-3.68 0 z M53.192 40 l0 -11.12 l4 -10.16 l5.44 0 l-4.4 11.12 l0 10.16 l-5.04 0 z M48.152 17.04 l0 -5.04 l14.84 0 l0 5.04 l-14.84 0 z M67.628 40 l2.28 -11.2 l8.56 0 l-1.72 -8.56 l-1.36 6.88 l-5.16 0 l3.04 -15.12 l6.96 0 l4.4 21.84 l-10.6 0 l-1.24 6.16 l-5.16 0 z M80.748 40 l-0.92 -4.48 l5.16 0 l0.88 4.48 l-5.12 0 z M98.104 31.32 l-7.6 -19.32 l5.4 0 l4.2 10.6 l4.16 -10.6 l5.4 0 l-7.6 19.32 l-3.96 0 z M90.584 40 l0 -23.24 l5.04 12.84 l0 10.4 l-5.04 0 z M104.584 40 l0 -10.4 l5.04 -12.84 l0 23.24 l-5.04 0 z M115.1 28.52 l0 -16.52 l5.04 0 l0 16.52 l-5.04 0 z M115.1 40 l0 -9.8 l5.04 0 l0 9.8 l-5.04 0 z M121.82 40 l0 -5.04 l7 0 l0 5.04 l-7 0 z M121.82 28.52 l0 -5.04 l4.76 0 l0 5.04 l-4.76 0 z M121.82 17.04 l0 -5.04 l7 0 l0 5.04 l-7 0 z M140.976 40 l0 -5.04 l3.72 0 l0.76 -0.76 l0 -16.4 l-0.76 -0.76 l-3.72 0 l0 -5.04 l5.8 0 l3.72 3.72 l0 20.56 l-3.72 3.72 l-5.8 0 z M134.256 40 l0 -28 l5.04 0 l0 28 l-5.04 0 z M169.488 28.52 l-3.72 -3.72 l0 -9.08 l3.72 -3.72 l3.28 0 l0 5.04 l-1.2 0 l-0.76 0.76 l0 4.92 l0.76 0.76 l6.16 0 l3.72 3.72 l0 1.32 l-11.96 0 z M169.488 40 l-3.72 -3.72 l0 -5.24 l5.04 0 l0 3.16 l0.76 0.76 l4.08 0 l0.76 -0.76 l0 -4 l5.04 0 l0 6.08 l-3.72 3.72 l-8.24 0 z M176.40800000000002 20.96 l0 -3.16 l-0.76 -0.76 l-1.2 0 l0 -5.04 l3.28 0 l3.72 3.72 l0 5.24 l-5.04 0 z M186.084 40 l2.28 -11.2 l8.56 0 l-1.72 -8.56 l-1.36 6.88 l-5.16 0 l3.04 -15.12 l6.96 0 l4.4 21.84 l-10.6 0 l-1.24 6.16 l-5.16 0 z M199.20399999999998 40 l-0.92 -4.48 l5.16 0 l0.88 4.48 l-5.12 0 z M208.95999999999998 25.16 l0 -13.16 l5.04 0 l0 13.16 l-5.04 0 z M208.95999999999998 40 l0 -13.16 l5.04 0 l0 13.16 l-5.04 0 z M226.15599999999998 40 l0 -5.04 l3.72 0 l0.76 -0.76 l0 -16.4 l-0.76 -0.76 l-3.72 0 l0 -5.04 l5.8 0 l3.72 3.72 l0 20.56 l-3.72 3.72 l-5.8 0 z M219.43599999999998 40 l0 -28 l5.04 0 l0 28 l-5.04 0 z"></path></g></svg>